<svg width="875" height="145" viewBox="0 0 875 145" fill="none" xmlns="http://www.w3.org/2000/svg">
<path d="M69.4404 18.3987C40.7733 19.4353 17.8497 43.1348 17.8497 72.2191C17.8497 101.963 41.8245 126.075 71.399 126.075C100.318 126.075 123.882 103.02 124.913 74.1888" stroke="#041B34" stroke-width="10" stroke-linecap="round" stroke-linejoin="round"/>
<path d="M69.4404 18.3987C66.8809 23.8307 65.4491 29.9048 65.4491 36.3153C65.4491 42.7257 69.4404 48.2831 77.3489 51.2751C77.3489 64.3978 89.2487 78.203 104.124 72.219C113.048 81.1949 121.973 78.203 124.913 74.1888" stroke="#E6A84C" stroke-width="10" stroke-linecap="round" stroke-linejoin="round"/>
<ellipse cx="47.5993" cy="48.2831" rx="5.94991" ry="5.98396" fill="#041B34"/>
<ellipse cx="35.6995" cy="72.219" rx="5.94991" ry="5.98396" fill="#041B34"/>
<ellipse cx="71.399" cy="108.123" rx="5.94991" ry="5.98396" fill="#041B34"/>
<ellipse cx="65.449" cy="78.2029" rx="5.94991" ry="5.98396" fill="#041B34"/>
<ellipse cx="47.5993" cy="96.1548" rx="5.94991" ry="5.98396" fill="#041B34"/>
<ellipse cx="95.1986" cy="96.1548" rx="5.94991" ry="5.98396" fill="#041B34"/>
<path d="M201.174 39.7071C205.01 39.7071 208.257 39.8178 210.913 40.0391C213.642 40.2605 216.114 40.5556 218.327 40.9245C220.614 41.2934 222.939 41.8098 225.299 42.4739L223.75 57.7461C221.242 57.5985 218.918 57.5248 216.778 57.5248C214.638 57.451 212.351 57.4141 209.917 57.4141C207.482 57.3403 204.568 57.3034 201.174 57.3034C198.149 57.3034 195.751 57.9305 193.98 59.1848C192.283 60.439 191.103 62.6524 190.439 65.8249C189.775 68.9974 189.443 73.461 189.443 79.2158C189.443 84.9705 189.775 89.4341 190.439 92.6066C191.103 95.7791 192.283 97.9925 193.98 99.2467C195.751 100.501 198.149 101.128 201.174 101.128C206.56 101.128 211.023 101.054 214.565 100.907C218.18 100.759 221.795 100.501 225.41 100.132L226.959 115.294C223.271 116.548 219.471 117.433 215.561 117.95C211.724 118.466 206.928 118.724 201.174 118.724C192.984 118.724 186.418 117.47 181.475 114.962C176.605 112.379 173.064 108.211 170.851 102.456C168.711 96.7014 167.641 88.9546 167.641 79.2158C167.641 69.4769 168.711 61.7302 170.851 55.9754C173.064 50.2206 176.605 46.089 181.475 43.5805C186.418 40.9983 192.984 39.7071 201.174 39.7071ZM261.01 60.8448C268.24 60.8448 274.032 61.8039 278.385 63.7222C282.738 65.5667 285.873 68.6285 287.792 72.9077C289.71 77.1131 290.669 82.794 290.669 89.9506C290.669 97.0334 289.71 102.677 287.792 106.883C285.873 111.014 282.738 114.039 278.385 115.958C274.032 117.802 268.24 118.724 261.01 118.724C253.78 118.724 247.988 117.802 243.635 115.958C239.282 114.039 236.146 111.014 234.228 106.883C232.31 102.677 231.351 97.0334 231.351 89.9506C231.351 82.794 232.31 77.1131 234.228 72.9077C236.146 68.6285 239.282 65.5667 243.635 63.7222C247.988 61.8039 253.78 60.8448 261.01 60.8448ZM261.01 74.8997C258.723 74.8997 256.952 75.3055 255.698 76.117C254.517 76.9286 253.669 78.4042 253.152 80.5438C252.636 82.6834 252.378 85.819 252.378 89.9506C252.378 94.0084 252.636 97.1072 253.152 99.2467C253.669 101.386 254.517 102.862 255.698 103.673C256.952 104.411 258.723 104.78 261.01 104.78C263.297 104.78 265.068 104.411 266.322 103.673C267.576 102.862 268.425 101.386 268.867 99.2467C269.384 97.1072 269.642 94.0084 269.642 89.9506C269.642 85.819 269.384 82.6834 268.867 80.5438C268.425 78.4042 267.576 76.9286 266.322 76.117C265.068 75.3055 263.297 74.8997 261.01 74.8997ZM325.816 60.8448C333.046 60.8448 338.838 61.8039 343.191 63.7222C347.544 65.5667 350.679 68.6285 352.597 72.9077C354.516 77.1131 355.475 82.794 355.475 89.9506C355.475 97.0334 354.516 102.677 352.597 106.883C350.679 111.014 347.544 114.039 343.191 115.958C338.838 117.802 333.046 118.724 325.816 118.724C318.585 118.724 312.794 117.802 308.441 115.958C304.088 114.039 300.952 111.014 299.034 106.883C297.116 102.677 296.157 97.0334 296.157 89.9506C296.157 82.794 297.116 77.1131 299.034 72.9077C300.952 68.6285 304.088 65.5667 308.441 63.7222C312.794 61.8039 318.585 60.8448 325.816 60.8448ZM325.816 74.8997C323.529 74.8997 321.758 75.3055 320.504 76.117C319.323 76.9286 318.475 78.4042 317.958 80.5438C317.442 82.6834 317.184 85.819 317.184 89.9506C317.184 94.0084 317.442 97.1072 317.958 99.2467C318.475 101.386 319.323 102.862 320.504 103.673C321.758 104.411 323.529 104.78 325.816 104.78C328.103 104.78 329.874 104.411 331.128 103.673C332.382 102.862 333.231 101.386 333.673 99.2467C334.19 97.1072 334.448 94.0084 334.448 89.9506C334.448 85.819 334.19 82.6834 333.673 80.5438C333.231 78.4042 332.382 76.9286 331.128 76.117C329.874 75.3055 328.103 74.8997 325.816 74.8997ZM420.502 62.3942L407.665 80.8758C406.927 82.2038 405.968 83.4212 404.787 84.5278C403.607 85.6345 402.648 86.4092 401.91 86.8519V87.2946C402.648 87.7372 403.607 88.6226 404.787 89.9506C405.968 91.2786 406.927 92.6066 407.665 93.9347L422.494 117.396H400.25L382.985 86.7412L398.368 62.3942H420.502ZM383.096 39.9285V70.6943C383.096 73.3503 382.912 76.0433 382.543 78.7731C382.248 81.5029 381.731 84.1221 380.993 86.6305C381.584 88.9177 382.063 91.3524 382.432 93.9347C382.875 96.5169 383.096 98.8779 383.096 101.017V117.396H362.954V39.9285H383.096ZM389.847 81.0971V92.828H377.009V81.0971H389.847ZM446.613 62.3942V117.396H426.582V62.3942H446.613ZM440.858 37.6044C444.768 37.6044 446.724 39.5965 446.724 43.5805V49.3353C446.724 53.3194 444.768 55.3114 440.858 55.3114H432.226C428.316 55.3114 426.361 53.3194 426.361 49.3353V43.5805C426.361 39.5965 428.316 37.6044 432.226 37.6044H440.858ZM484.463 60.8448C494.35 60.8448 501.395 62.4679 505.601 65.7142C509.806 68.9605 511.909 73.7561 511.909 80.1011C511.983 85.1919 510.581 88.9177 507.704 91.2786C504.826 93.6395 499.735 94.82 492.431 94.82H462.33V84.7492H486.787C489.296 84.7492 490.882 84.3803 491.546 83.6425C492.284 82.9047 492.653 81.5767 492.653 79.6584C492.579 77.5188 491.989 76.0802 490.882 75.3424C489.775 74.6046 487.857 74.2357 485.127 74.2357C482.545 74.1619 480.553 74.457 479.151 75.121C477.823 75.785 476.901 77.1131 476.384 79.1051C475.868 81.0971 475.61 84.0852 475.61 88.0692C475.61 92.0533 475.905 95.1151 476.495 97.2547C477.159 99.3943 478.303 100.907 479.926 101.792C481.623 102.677 483.984 103.12 487.009 103.12C489.37 103.12 492.468 103.046 496.305 102.899C500.215 102.677 504.31 102.345 508.589 101.903L510.47 114.076C508.109 115.257 505.49 116.179 502.613 116.843C499.809 117.507 496.895 117.987 493.87 118.282C490.845 118.577 487.82 118.724 484.795 118.724C477.417 118.724 471.515 117.691 467.088 115.626C462.662 113.56 459.452 110.424 457.46 106.219C455.542 101.94 454.583 96.5907 454.583 90.1719C454.583 82.9416 455.579 77.1868 457.571 72.9077C459.563 68.6285 462.735 65.5667 467.088 63.7222C471.515 61.8039 477.307 60.8448 484.463 60.8448ZM609.52 41.0352V110.092C609.52 114.962 607.122 117.396 602.327 117.396H593.031C590.817 117.396 589.157 116.88 588.051 115.847C587.018 114.814 585.948 113.302 584.841 111.31L566.138 78.7731C565.253 76.9286 564.368 74.9366 563.482 72.797C562.597 70.6574 561.859 68.5178 561.269 66.3782H560.273C560.568 68.5178 560.789 70.7312 560.937 73.0183C561.158 75.2317 561.269 77.3713 561.269 79.4371V117.396H541.902V48.3393C541.902 43.4699 544.337 41.0352 549.206 41.0352H558.391C560.605 41.0352 562.228 41.5516 563.261 42.5845C564.294 43.6174 565.4 45.1299 566.581 47.1219L584.509 78.4411C585.542 80.2118 586.538 82.1669 587.497 84.3065C588.456 86.4461 589.379 88.6964 590.264 91.0573H591.26C591.039 88.7701 590.854 86.5199 590.707 84.3065C590.559 82.0931 590.485 79.8798 590.485 77.6664L590.375 41.0352H609.52ZM647.861 60.8448C655.091 60.8448 660.883 61.8039 665.236 63.7222C669.589 65.5667 672.724 68.6285 674.643 72.9077C676.561 77.1131 677.52 82.794 677.52 89.9506C677.52 97.0334 676.561 102.677 674.643 106.883C672.724 111.014 669.589 114.039 665.236 115.958C660.883 117.802 655.091 118.724 647.861 118.724C640.63 118.724 634.839 117.802 630.486 115.958C626.133 114.039 622.997 111.014 621.079 106.883C619.161 102.677 618.202 97.0334 618.202 89.9506C618.202 82.794 619.161 77.1131 621.079 72.9077C622.997 68.6285 626.133 65.5667 630.486 63.7222C634.839 61.8039 640.63 60.8448 647.861 60.8448ZM647.861 74.8997C645.574 74.8997 643.803 75.3055 642.549 76.117C641.368 76.9286 640.52 78.4042 640.003 80.5438C639.487 82.6834 639.229 85.819 639.229 89.9506C639.229 94.0084 639.487 97.1072 640.003 99.2467C640.52 101.386 641.368 102.862 642.549 103.673C643.803 104.411 645.574 104.78 647.861 104.78C650.148 104.78 651.919 104.411 653.173 103.673C654.427 102.862 655.276 101.386 655.718 99.2467C656.235 97.1072 656.493 94.0084 656.493 89.9506C656.493 85.819 656.235 82.6834 655.718 80.5438C655.276 78.4042 654.427 76.9286 653.173 76.117C651.919 75.3055 650.148 74.8997 647.861 74.8997ZM710.129 47.5646V98.4721C710.129 100.095 710.535 101.276 711.346 102.013C712.158 102.751 713.523 103.12 715.441 103.12H721.86L724.073 116.29C722.598 116.88 720.79 117.359 718.65 117.728C716.585 118.097 714.482 118.355 712.342 118.503C710.203 118.724 708.358 118.835 706.809 118.835C701.644 118.835 697.55 117.507 694.525 114.851C691.574 112.121 690.098 108.358 690.098 103.563L689.987 47.5646H710.129ZM724.405 62.3942V74.8997H680.581V62.9475L691.205 62.3942H724.405ZM750.501 62.3942V117.396H730.47V62.3942H750.501ZM744.747 37.6044C748.657 37.6044 750.612 39.5965 750.612 43.5805V49.3353C750.612 53.3194 748.657 55.3114 744.747 55.3114H736.115C732.204 55.3114 730.249 53.3194 730.249 49.3353V43.5805C730.249 39.5965 732.204 37.6044 736.115 37.6044H744.747ZM787.245 60.8448C789.385 60.8448 791.746 60.9555 794.328 61.1768C796.91 61.3982 799.492 61.8039 802.075 62.3942C804.657 62.9106 806.981 63.6484 809.047 64.6075L807.055 77.1131C803.735 77.1131 800.747 77.1131 798.091 77.1131C795.435 77.0393 792.963 77.0024 790.676 77.0024C787.872 77.0024 785.659 77.3713 784.036 78.1091C782.413 78.8469 781.269 80.138 780.605 81.9825C779.941 83.7532 779.609 86.3723 779.609 89.8399C779.609 93.2338 779.941 95.8898 780.605 97.8081C781.269 99.6525 782.413 100.944 784.036 101.681C785.659 102.345 787.872 102.677 790.676 102.677C791.93 102.677 793.479 102.677 795.324 102.677C797.168 102.604 799.197 102.53 801.411 102.456C803.624 102.309 805.837 102.124 808.051 101.903L809.932 114.519C806.76 116.068 803.144 117.138 799.087 117.728C795.103 118.392 791.082 118.724 787.024 118.724C780.088 118.724 774.518 117.802 770.313 115.958C766.107 114.039 763.082 110.978 761.238 106.772C759.393 102.493 758.471 96.8489 758.471 89.8399C758.471 82.6834 759.393 77.0024 761.238 72.797C763.156 68.5916 766.218 65.5667 770.423 63.7222C774.629 61.8039 780.236 60.8448 787.245 60.8448ZM843.431 60.8448C853.317 60.8448 860.363 62.4679 864.568 65.7142C868.774 68.9605 870.877 73.7561 870.877 80.1011C870.95 85.1919 869.549 88.9177 866.671 91.2786C863.794 93.6395 858.703 94.82 851.399 94.82H821.297V84.7492H845.755C848.263 84.7492 849.85 84.3803 850.514 83.6425C851.251 82.9047 851.62 81.5767 851.62 79.6584C851.547 77.5188 850.956 76.0802 849.85 75.3424C848.743 74.6046 846.825 74.2357 844.095 74.2357C841.513 74.1619 839.521 74.457 838.119 75.121C836.791 75.785 835.868 77.1131 835.352 79.1051C834.836 81.0971 834.577 84.0852 834.577 88.0692C834.577 92.0533 834.872 95.1151 835.463 97.2547C836.127 99.3943 837.27 100.907 838.893 101.792C840.59 102.677 842.951 103.12 845.976 103.12C848.337 103.12 851.436 103.046 855.272 102.899C859.183 102.677 863.277 102.345 867.557 101.903L869.438 114.076C867.077 115.257 864.458 116.179 861.58 116.843C858.777 117.507 855.863 117.987 852.838 118.282C849.813 118.577 846.788 118.724 843.763 118.724C836.385 118.724 830.483 117.691 826.056 115.626C821.629 113.56 818.42 110.424 816.428 106.219C814.509 101.94 813.55 96.5907 813.55 90.1719C813.55 82.9416 814.546 77.1868 816.538 72.9077C818.53 68.6285 821.703 65.5667 826.056 63.7222C830.483 61.8039 836.274 60.8448 843.431 60.8448Z" fill="#041B34"/>
</svg>
