<svg xmlns="http://www.w3.org/2000/svg" fill="none" class="size-4 shrink-0" viewBox="0 0 14 14">
    <g stroke="currentColor" stroke-linecap="round" stroke-linejoin="round">
        <path d="M7 13.5c4.42 0 6.5-2.91 6.5-6.5-1.616.753-3.276-.1-3.427-1.808 0 0-1.749.2-2.813-.792C5.7 2.84 7 .5 7 .5 2.58.5.5 3.41.5 7s2.08 6.5 6.5 6.5Zm-.319-2.925-.155.155m3.213-1.363-.155.154"/>
        <path d="M4.419 8.367c.998 0 1.56-.561 1.56-1.56s-.562-1.56-1.56-1.56c-.999 0-1.56.562-1.56 1.56s.561 1.56 1.56 1.56Z"/>
    </g>
</svg>